<?xml version="1.0" standalone="no"?>
<!DOCTYPE svg PUBLIC "-//W3C//DTD SVG 20010904//EN"
 "http://www.w3.org/TR/2001/REC-SVG-20010904/DTD/svg10.dtd">
<svg version="1.0" xmlns="http://www.w3.org/2000/svg"
 width="618.000000pt" height="618.000000pt" viewBox="0 0 618.000000 618.000000"
 preserveAspectRatio="xMidYMid meet">
<metadata>
Created by potrace 1.14, written by Peter Selinger 2001-2017
</metadata>
<g transform="translate(0.000000,618.000000) scale(0.100000,-0.100000)"
fill="#000000" stroke="none">
<path d="M2930 6174 c-506 -33 -951 -170 -1369 -419 -738 -441 -1268 -1202
-1435 -2061 -57 -295 -73 -661 -41 -944 114 -991 687 -1868 1542 -2357 612
-351 1343 -470 2033 -333 502 100 960 320 1350 648 117 98 333 318 424 432
254 318 464 733 572 1130 81 301 109 543 101 887 -7 349 -48 585 -157 913 -94
285 -196 494 -364 750 -494 750 -1300 1243 -2191 1339 -103 12 -384 20 -465
15z m1379 -890 c99 -24 258 -104 318 -161 56 -51 92 -119 93 -169 0 -46 -27
-116 -62 -158 -42 -52 -107 -79 -268 -117 -74 -17 -187 -47 -250 -67 -63 -20
-121 -38 -129 -40 -32 -9 19 212 71 310 61 115 199 218 292 218 l41 1 -23 19
c-35 29 -99 43 -173 38 -85 -6 -196 -59 -274 -130 -90 -82 -160 -238 -250
-553 -55 -194 -211 -882 -202 -892 4 -3 198 -32 433 -64 234 -31 427 -58 429
-60 2 -2 -9 -60 -24 -129 l-27 -125 -34 3 c-19 2 -215 28 -435 57 -220 30
-403 51 -406 47 -11 -12 -88 -377 -81 -383 4 -3 185 -29 402 -58 217 -29 411
-55 431 -58 l36 -5 -29 -126 c-15 -69 -30 -127 -31 -129 -2 -1 -199 24 -438
56 -239 33 -435 59 -436 57 -1 -1 -45 -191 -97 -423 -101 -448 -128 -536 -226
-738 -109 -225 -228 -379 -382 -495 -145 -109 -281 -160 -433 -160 -103 0
-178 19 -290 75 -211 104 -284 232 -212 371 50 98 108 128 372 188 127 30 233
61 307 91 15 6 16 2 12 -32 -26 -176 -77 -302 -157 -383 -67 -67 -120 -98
-199 -114 l-63 -14 47 -21 c100 -46 187 -37 320 31 167 86 238 211 358 633 55
196 245 1034 236 1043 -4 3 -201 32 -438 64 -237 32 -434 60 -436 63 -5 4 45
245 52 252 1 2 200 -24 441 -57 242 -33 441 -57 444 -54 11 10 89 379 83 385
-4 4 -203 32 -442 64 -239 32 -437 59 -439 61 -5 4 47 246 54 252 2 2 203 -23
447 -56 244 -32 444 -59 445 -58 1 1 34 145 73 321 39 176 83 356 97 400 65
200 177 423 283 564 211 279 519 426 769 365z"/>
</g>
</svg>
