<?xml version="1.0" standalone="no"?>
<!DOCTYPE svg PUBLIC "-//W3C//DTD SVG 20010904//EN"
 "http://www.w3.org/TR/2001/REC-SVG-20010904/DTD/svg10.dtd">
<svg version="1.0" xmlns="http://www.w3.org/2000/svg"
 width="192.000000pt" height="192.000000pt" viewBox="0 0 192.000000 192.000000"
 preserveAspectRatio="xMidYMid meet">
<metadata>
Created by potrace 1.14, written by Peter Selinger 2001-2017
</metadata>
<g transform="translate(0.000000,192.000000) scale(0.100000,-0.100000)"
fill="#000000" stroke="none">
<path d="M755 1904 c-152 -34 -318 -118 -434 -221 -124 -109 -234 -285 -287
-459 -26 -82 -28 -103 -28 -259 -1 -149 2 -180 22 -250 97 -335 337 -580 669
-682 81 -25 101 -27 263 -27 162 0 182 2 263 27 332 102 578 353 667 682 33
119 38 302 12 425 -63 302 -250 549 -519 684 -134 67 -228 88 -403 92 -114 3
-173 -1 -225 -12z m640 -285 c75 -35 96 -86 53 -126 -20 -18 -186 -69 -194
-60 -2 2 1 21 7 42 13 46 68 105 98 105 30 0 26 18 -5 26 -37 9 -98 -12 -131
-45 -34 -34 -71 -137 -113 -315 -21 -87 -28 -131 -20 -136 5 -3 58 -12 118
-19 136 -16 142 -18 142 -44 0 -46 -7 -47 -148 -28 -75 10 -136 13 -139 8 -3
-5 -11 -33 -18 -64 -9 -40 -10 -55 -1 -58 6 -2 67 -11 136 -20 69 -9 126 -17
126 -18 1 -1 -1 -17 -3 -34 -6 -38 -2 -38 -138 -18 -165 24 -146 37 -183 -126
-51 -224 -124 -349 -235 -399 -126 -58 -299 34 -234 124 12 17 186 70 196 61
2 -2 0 -20 -3 -40 -8 -41 -67 -105 -96 -105 -26 0 -26 -17 1 -25 33 -11 86 3
119 32 34 28 50 55 75 128 18 54 96 378 91 382 -2 2 -54 10 -117 18 -169 23
-162 20 -154 58 4 18 8 33 9 34 1 1 62 -7 136 -17 74 -10 137 -17 141 -14 13
8 33 114 23 123 -5 4 -54 13 -109 20 -168 20 -162 18 -157 52 2 16 8 31 12 34
4 2 64 -3 133 -12 69 -8 132 -13 140 -10 8 3 23 49 37 113 42 189 119 317 223
368 63 32 122 33 182 5z"/>
</g>
</svg>
