<svg xmlns="http://www.w3.org/2000/svg">
  <symbol id="icon__loading" viewBox="0 0 24 24" fill="none">
    <path fill-rule="evenodd" clip-rule="evenodd" d="M12 4C11.1163 4 10.4 3.28366 10.4 2.4C10.4 1.51634 11.1163 0.8 12 0.8C12.8837 0.8 13.6 1.51634 13.6 2.4C13.6 3.28366 12.8837 4 12 4ZM21.6 14.4C20.2745 14.4 19.2 13.3255 19.2 12C19.2 10.6745 20.2745 9.6 21.6 9.6C22.9255 9.6 24 10.6745 24 12C24 13.3255 22.9255 14.4 21.6 14.4ZM18.8 21.6C17.2536 21.6 16 20.3464 16 18.8C16 17.2536 17.2536 16 18.8 16C20.3464 16 21.6 17.2536 21.6 18.8C21.6 20.3464 20.3464 21.6 18.8 21.6ZM4.8 18.8C4.8 19.0209 4.97909 19.2 5.2 19.2C5.42091 19.2 5.6 19.0209 5.6 18.8C5.6 18.5791 5.42091 18.4 5.2 18.4C4.97909 18.4 4.8 18.5791 4.8 18.8ZM4 5.2C4 5.86274 4.53726 6.4 5.2 6.4C5.86274 6.4 6.4 5.86274 6.4 5.2C6.4 4.53726 5.86274 4 5.2 4C4.53726 4 4 4.53726 4 5.2ZM2.4 12.8C1.95817 12.8 1.6 12.4418 1.6 12C1.6 11.5582 1.95817 11.2 2.4 11.2C2.84183 11.2 3.2 11.5582 3.2 12C3.2 12.4418 2.84183 12.8 2.4 12.8ZM16.8 5.2C16.8 6.30457 17.6954 7.2 18.8 7.2C19.9046 7.2 20.8 6.30457 20.8 5.2C20.8 4.09543 19.9046 3.2 18.8 3.2C17.6954 3.2 16.8 4.09543 16.8 5.2Z" fill="currentColor" />
  </symbol>

  <symbol id="icon__search" viewBox="0 0 24 24" fill="none">
    <path fill-rule="evenodd" clip-rule="evenodd" d="M11.2 20.8C16.5019 20.8 20.8 16.502 20.8 11.2C20.8 5.8981 16.5019 1.60004 11.2 1.60004C5.89804 1.60004 1.59998 5.8981 1.59998 11.2C1.59998 16.502 5.89804 20.8 11.2 20.8Z" stroke="currentColor" stroke-width="2" stroke-linecap="round"/>
    <path d="M21.6 21.6L18 18" stroke="currentColor" stroke-width="2" stroke-linecap="round"/>
  </symbol>
</svg>
