<svg xmlns="http://www.w3.org/2000/svg">
  <symbol id="icon__loading" viewBox="0 0 24 24" fill="none">
    <path fill-rule="evenodd" clip-rule="evenodd" d="M12 4C11.1163 4 10.4 3.28366 10.4 2.4C10.4 1.51634 11.1163 0.8 12 0.8C12.8837 0.8 13.6 1.51634 13.6 2.4C13.6 3.28366 12.8837 4 12 4ZM21.6 14.4C20.2745 14.4 19.2 13.3255 19.2 12C19.2 10.6745 20.2745 9.6 21.6 9.6C22.9255 9.6 24 10.6745 24 12C24 13.3255 22.9255 14.4 21.6 14.4ZM18.8 21.6C17.2536 21.6 16 20.3464 16 18.8C16 17.2536 17.2536 16 18.8 16C20.3464 16 21.6 17.2536 21.6 18.8C21.6 20.3464 20.3464 21.6 18.8 21.6ZM4.8 18.8C4.8 19.0209 4.97909 19.2 5.2 19.2C5.42091 19.2 5.6 19.0209 5.6 18.8C5.6 18.5791 5.42091 18.4 5.2 18.4C4.97909 18.4 4.8 18.5791 4.8 18.8ZM4 5.2C4 5.86274 4.53726 6.4 5.2 6.4C5.86274 6.4 6.4 5.86274 6.4 5.2C6.4 4.53726 5.86274 4 5.2 4C4.53726 4 4 4.53726 4 5.2ZM2.4 12.8C1.95817 12.8 1.6 12.4418 1.6 12C1.6 11.5582 1.95817 11.2 2.4 11.2C2.84183 11.2 3.2 11.5582 3.2 12C3.2 12.4418 2.84183 12.8 2.4 12.8ZM16.8 5.2C16.8 6.30457 17.6954 7.2 18.8 7.2C19.9046 7.2 20.8 6.30457 20.8 5.2C20.8 4.09543 19.9046 3.2 18.8 3.2C17.6954 3.2 16.8 4.09543 16.8 5.2Z" fill="currentColor" />
  </symbol>

  <symbol id="icon__search" viewBox="0 0 24 24" fill="none">
    <path fill-rule="evenodd" clip-rule="evenodd" d="M11.2 20.8C16.5019 20.8 20.8 16.502 20.8 11.2C20.8 5.8981 16.5019 1.60004 11.2 1.60004C5.89804 1.60004 1.59998 5.8981 1.59998 11.2C1.59998 16.502 5.89804 20.8 11.2 20.8Z" stroke="currentColor" stroke-width="2" stroke-linecap="round"/>
    <path d="M21.6 21.6L18 18" stroke="currentColor" stroke-width="2" stroke-linecap="round"/>
  </symbol>

  <symbol id="icon__navigation-left" viewBox="0 0 24 24" fill="none">
    <path d="M14.7071 6.70711C15.0976 6.31658 15.0976 5.68342 14.7071 5.29289C14.3166 4.90237 13.6834 4.90237 13.2929 5.29289L14.7071 6.70711ZM8.70711 11.2929L9.41421 12L9.41422 12L8.70711 11.2929ZM8.70711 12.7071L9.41422 12L9.41421 12L8.70711 12.7071ZM13.2929 18.7071C13.6834 19.0976 14.3166 19.0976 14.7071 18.7071C15.0976 18.3166 15.0976 17.6834 14.7071 17.2929L13.2929 18.7071ZM13.2929 5.29289L8 10.5858L9.41422 12L14.7071 6.70711L13.2929 5.29289ZM8 13.4142L13.2929 18.7071L14.7071 17.2929L9.41422 12L8 13.4142ZM8 10.5858C7.21895 11.3668 7.21895 12.6332 8 13.4142L9.41421 12V12L8 10.5858Z" fill="currentColor" />
  </symbol>

  <symbol id="icon__navigation-right" viewBox="0 0 24 24" fill="none">
    <path d="M9.53033 5.46967C9.23744 5.17678 8.76256 5.17678 8.46967 5.46967C8.17678 5.76256 8.17678 6.23744 8.46967 6.53033L9.53033 5.46967ZM14.2929 11.2929L13.7626 11.8232H13.7626L14.2929 11.2929ZM14.2929 12.7071L13.7626 12.1768H13.7626L14.2929 12.7071ZM8.46967 17.4697C8.17678 17.7626 8.17678 18.2374 8.46967 18.5303C8.76256 18.8232 9.23744 18.8232 9.53033 18.5303L8.46967 17.4697ZM8.46967 6.53033L13.7626 11.8232L14.8232 10.7626L9.53033 5.46967L8.46967 6.53033ZM13.7626 12.1768L8.46967 17.4697L9.53033 18.5303L14.8232 13.2374L13.7626 12.1768ZM13.7626 11.8232C13.8602 11.9209 13.8602 12.0791 13.7626 12.1768L14.8232 13.2374C15.5066 12.554 15.5066 11.446 14.8232 10.7626L13.7626 11.8232Z" fill="currentColor" />
  </symbol>

  <symbol id="icon__calendar" viewBox="0 0 24 24" fill="none">
    <rect x="1.60001" y="4" width="20.8" height="18.4" rx="3" stroke="currentColor" stroke-width="2" stroke-linecap="round" />
    <path d="M1.60001 9.60001H22.4" stroke="currentColor" stroke-width="2" stroke-linecap="round" />
    <path d="M6.4 1.60001V6.40001" stroke="currentColor" stroke-width="2" stroke-linecap="round" />
    <path d="M17.6 1.60001V6.40001" stroke="currentColor" stroke-width="2" stroke-linecap="round" />
    <path fill-rule="evenodd" clip-rule="evenodd" d="M6.00001 15.2C6.66275 15.2 7.20001 14.6627 7.20001 14C7.20001 13.3372 6.66275 12.8 6.00001 12.8C5.33726 12.8 4.80001 13.3372 4.80001 14C4.80001 14.6627 5.33726 15.2 6.00001 15.2ZM7.2 18C7.2 18.6627 6.66274 19.2 6 19.2C5.33726 19.2 4.8 18.6627 4.8 18C4.8 17.3373 5.33726 16.8 6 16.8C6.66274 16.8 7.2 17.3373 7.2 18ZM11.2 18C11.2 18.6628 10.6627 19.2 10 19.2C9.33726 19.2 8.8 18.6628 8.8 18C8.8 17.3373 9.33726 16.8 10 16.8C10.6627 16.8 11.2 17.3373 11.2 18ZM14 19.2C14.6627 19.2 15.2 18.6628 15.2 18C15.2 17.3373 14.6627 16.8 14 16.8C13.3373 16.8 12.8 17.3373 12.8 18C12.8 18.6628 13.3373 19.2 14 19.2ZM19.2 18C19.2 18.6628 18.6627 19.2 18 19.2C17.3373 19.2 16.8 18.6628 16.8 18C16.8 17.3373 17.3373 16.8 18 16.8C18.6627 16.8 19.2 17.3373 19.2 18ZM11.2 14C11.2 14.6627 10.6627 15.2 10 15.2C9.33726 15.2 8.8 14.6627 8.8 14C8.8 13.3373 9.33726 12.8 10 12.8C10.6627 12.8 11.2 13.3373 11.2 14ZM14 15.2C14.6627 15.2 15.2 14.6627 15.2 14C15.2 13.3373 14.6627 12.8 14 12.8C13.3373 12.8 12.8 13.3373 12.8 14C12.8 14.6627 13.3373 15.2 14 15.2ZM19.2 14C19.2 14.6627 18.6627 15.2 18 15.2C17.3373 15.2 16.8 14.6627 16.8 14C16.8 13.3373 17.3373 12.8 18 12.8C18.6627 12.8 19.2 13.3373 19.2 14Z" fill="currentColor" />
  </symbol>

  <symbol id="icon__dropdown-arrow-down" viewBox="0 0 24 24" fill="none">
    <path d="M11.2929 14.2929L7.70708 10.7071C7.07712 10.0771 7.52329 9 8.41419 9L15.5858 9C16.4767 9 16.9228 10.0771 16.2929 10.7071L12.7071 14.2929C12.3166 14.6834 11.6834 14.6834 11.2929 14.2929Z" fill="currentColor" />
  </symbol>
</svg>
